<svg viewBox="0 0 239.75999450683594 41" xmlns="http://www.w3.org/2000/svg" data-logo="logo">
        <g style="opacity: 1;" transform="translate(0, 0.5)
    rotate(0 25 20)" id="logogram"><path fill="#FF2929" d="M43 31L31 40H5L7 35L12 31H29L32 35L40 11L45 7H50L43 31ZM43 5L38 9H21L18 5L10 29L5 33H0L7 9L19 0H45L43 5ZM24 13H35L29 31L26 27H15L21 9L24 13Z"></path></g>
        <g style="opacity: 1;" transform="translate(56, 6.789999999999999)" id="logotype"><path d="M20.95 27L15.49 27L6.38 0.92L11.57 0.92L18.71 22.52L17.69 22.52L24.83 0.92L30.01 0.92L20.95 27ZM40.09 27.42L40.09 27.42Q37.29 27.42 35.00 26.13Q32.71 24.83 31.36 22.59Q30.01 20.35 30.01 17.48L30.01 17.48Q30.01 14.61 31.36 12.37Q32.71 10.13 34.98 8.83Q37.26 7.54 40.09 7.54L40.09 7.54Q42.89 7.54 45.17 8.83Q47.44 10.13 48.79 12.35Q50.14 14.57 50.14 17.48L50.14 17.48Q50.14 20.35 48.77 22.59Q47.41 24.83 45.13 26.13Q42.86 27.42 40.09 27.42ZM40.09 23.22L40.09 23.22Q41.63 23.22 42.80 22.48Q43.98 21.75 44.66 20.44Q45.34 19.13 45.34 17.48L45.34 17.48Q45.34 15.80 44.66 14.52Q43.98 13.24 42.80 12.49Q41.63 11.74 40.09 11.74L40.09 11.74Q38.52 11.74 37.33 12.49Q36.14 13.24 35.45 14.52Q34.77 15.80 34.77 17.48L34.77 17.48Q34.77 19.13 35.45 20.44Q36.14 21.75 37.33 22.48Q38.52 23.22 40.09 23.22ZM56.58 27L51.19 27L57.84 17.45L51.15 7.96L56.54 7.96L61.76 15.66L59.34 15.66L64.56 7.96L69.91 7.96L63.26 17.45L69.88 27L64.52 27L59.38 19.34L61.72 19.34L56.58 27ZM85.06 27.42L85.06 27.42Q82.27 27.42 79.90 26.41Q77.54 25.39 75.77 23.57Q74.00 21.75 73.03 19.30Q72.05 16.85 72.05 13.94L72.05 13.94Q72.05 11.04 73.01 8.57Q73.97 6.10 75.74 4.30Q77.50 2.50 79.89 1.50Q82.27 0.50 85.06 0.50L85.06 0.50Q87.87 0.50 90.09 1.45Q92.31 2.39 93.85 3.95Q95.39 5.51 96.06 7.36L96.06 7.36L91.78 9.36Q91.05 7.40 89.30 6.12Q87.55 4.84 85.06 4.84L85.06 4.84Q82.62 4.84 80.74 6.00Q78.87 7.15 77.84 9.18Q76.81 11.21 76.81 13.94L76.81 13.94Q76.81 16.67 77.84 18.72Q78.87 20.77 80.74 21.93Q82.62 23.08 85.06 23.08L85.06 23.08Q87.55 23.08 89.30 21.80Q91.05 20.52 91.78 18.56L91.78 18.56L96.06 20.56Q95.39 22.41 93.85 23.97Q92.31 25.53 90.09 26.48Q87.87 27.42 85.06 27.42ZM104.11 27L99.52 27L99.52 0.50L104.11 0.50L104.11 27ZM117.65 27.42L117.65 27.42Q114.85 27.42 112.56 26.13Q110.27 24.83 108.92 22.59Q107.57 20.35 107.57 17.48L107.57 17.48Q107.57 14.61 108.92 12.37Q110.27 10.13 112.54 8.83Q114.82 7.54 117.65 7.54L117.65 7.54Q120.45 7.54 122.73 8.83Q125.00 10.13 126.35 12.35Q127.70 14.57 127.70 17.48L127.70 17.48Q127.70 20.35 126.33 22.59Q124.97 24.83 122.69 26.13Q120.42 27.42 117.65 27.42ZM117.65 23.22L117.65 23.22Q119.19 23.22 120.36 22.48Q121.54 21.75 122.22 20.44Q122.90 19.13 122.90 17.48L122.90 17.48Q122.90 15.80 122.22 14.52Q121.54 13.24 120.36 12.49Q119.19 11.74 117.65 11.74L117.65 11.74Q116.08 11.74 114.89 12.49Q113.70 13.24 113.01 14.52Q112.33 15.80 112.33 17.48L112.33 17.48Q112.33 19.13 113.01 20.44Q113.70 21.75 114.89 22.48Q116.08 23.22 117.65 23.22ZM138.41 27.42L138.41 27.42Q135.36 27.42 133.10 25.97Q130.84 24.52 130.00 22.03L130.00 22.03L133.44 20.38Q134.17 21.99 135.48 22.91Q136.80 23.81 138.41 23.81L138.41 23.81Q139.67 23.81 140.40 23.25Q141.14 22.70 141.14 21.79L141.14 21.79Q141.14 21.23 140.84 20.86Q140.54 20.49 140.03 20.23Q139.53 19.96 138.93 19.79L138.93 19.79L135.81 18.91Q133.40 18.21 132.16 16.78Q130.91 15.34 130.91 13.38L130.91 13.38Q130.91 11.63 131.81 10.32Q132.70 9.01 134.29 8.27Q135.89 7.54 137.95 7.54L137.95 7.54Q140.65 7.54 142.71 8.83Q144.78 10.13 145.65 12.47L145.65 12.47L142.15 14.12Q141.66 12.82 140.50 12.05Q139.35 11.28 137.92 11.28L137.92 11.28Q136.76 11.28 136.09 11.81Q135.43 12.33 135.43 13.17L135.43 13.17Q135.43 13.70 135.71 14.08Q135.99 14.47 136.50 14.71Q137.00 14.96 137.67 15.17L137.67 15.17L140.72 16.08Q143.06 16.78 144.34 18.18Q145.62 19.58 145.62 21.61L145.62 21.61Q145.62 23.32 144.71 24.64Q143.80 25.95 142.19 26.68Q140.58 27.42 138.41 27.42ZM158.18 27.42L158.18 27.42Q155.24 27.42 153.04 26.09Q150.83 24.76 149.61 22.48Q148.38 20.21 148.38 17.45L148.38 17.45Q148.38 14.57 149.62 12.35Q150.87 10.13 153.02 8.83Q155.17 7.54 157.83 7.54L157.83 7.54Q160.07 7.54 161.77 8.27Q163.47 9.01 164.66 10.30Q165.85 11.60 166.48 13.26Q167.11 14.92 167.11 16.85L167.11 16.85Q167.11 17.34 167.05 17.86Q167.00 18.39 166.86 18.77L166.86 18.77L152.16 18.77L152.16 15.27L164.27 15.27L162.10 16.92Q162.42 15.31 161.94 14.05Q161.47 12.79 160.40 12.05Q159.34 11.32 157.83 11.32L157.83 11.32Q156.40 11.32 155.28 12.04Q154.16 12.75 153.58 14.14Q153.00 15.52 153.14 17.48L153.14 17.48Q153.00 19.23 153.61 20.58Q154.23 21.93 155.43 22.66Q156.64 23.39 158.22 23.39L158.22 23.39Q159.79 23.39 160.89 22.73Q162.00 22.06 162.63 20.95L162.63 20.95L166.34 22.77Q165.78 24.13 164.59 25.18Q163.40 26.23 161.77 26.82Q160.14 27.42 158.18 27.42ZM175.16 27L170.57 27L170.57 7.96L174.88 7.96L174.88 12.19L174.53 11.56Q175.19 9.43 176.61 8.59Q178.03 7.75 180.02 7.75L180.02 7.75L181.14 7.75L181.14 11.81L179.50 11.81Q177.53 11.81 176.34 13.02Q175.16 14.22 175.16 16.39L175.16 16.39L175.16 27Z" fill="#ffffff"></path></g>
        
      </svg>